<?xml version="1.0" encoding="utf-8"?>
<!-- Generator: Adobe Illustrator 18.1.0, SVG Export Plug-In . SVG Version: 6.00 Build 0)  -->
<svg version="1.1" id="Layer_1" xmlns="http://www.w3.org/2000/svg" xmlns:xlink="http://www.w3.org/1999/xlink" x="0px" y="0px"
	 viewBox="0 0 150 150" enable-background="new 0 0 150 150" xml:space="preserve">
<g>
	<path fill="#C1C2C4" d="M75.4,63h1.8c-0.4-3-0.7-5-1.1-8h-1.8L75.4,63z"/>
	<path fill="#C1C2C4" d="M81.1,103.1l-23.1,4.6l-14.5-90l27.8,24.1l1,0.2l0,0.1h1.9c-0.7-3-2.9-4.6-2.9-4.6S45,13.6,44,13.1
		c-1-0.5-2.8-2.3-7.3-1c-3.3,1-2.5,3.8-2.5,3.8l8.5,52.2l0,0l-19.1,57.7c-0.2,0.5-1.6,5,0.7,8.7c0.9,1.4,2.7,3.1,6.3,3.6l0.2-0.1H72
		v-6c0,0-40.1,0-40.7,0c-1.4,0-1.8-0.6-1.9-0.8c-0.3-0.4-0.4-1-0.4-1.6c0-0.8,0.2-1.5,0.3-1.9l15.5-46.7l6.3,38.6
		c2.5,3.3,9,1.8,9,1.8l21.6-6c3.3-1.8,2-5.4,2-5.4s-0.4-2.9-0.9-6.9h-1.6L81.1,103.1z M55.3,119.5c-2.8,0.3-3.3-1.5-3.3-1.5
		L35.3,14.2c0.3-2.5,4-1.3,4-1.3l18.1,104.8C57.3,117.7,58.1,119.2,55.3,119.5z M70.7,114.4c-1.3,0-2.4-1.4-2.4-3.1
		c0-1.7,1.1-3.1,2.4-3.1c1.3,0,2.4,1.4,2.4,3.1C73.1,113,72,114.4,70.7,114.4z"/>
	<path fill="#C1C2C4" d="M80.1,96h1.6c-0.6-4-1.2-9-1.9-14h-1.7L80.1,96z"/>
	<path fill="#48B2E8" d="M77.2,82h-9.3c-0.5,0-0.9-0.2-1.3-0.5l0,0l11.3,7.6L77.2,82z"/>
	<path opacity="0.64" fill="#0081C3" d="M77.2,82h-9.3c-0.5,0-0.9-0.2-1.3-0.5l0,0l11.3,7.6L77.2,82z"/>
	<path fill="#48B2E8" d="M71.9,55h-6.4c-0.3,0-0.7,0-0.9-0.1l0,0.1l7.9,5.1L71.9,55z"/>
	<path opacity="0.64" fill="#0081C3" d="M71.9,55h-6.4c-0.3,0-0.7,0-0.9-0.1l0,0.1l7.9,5.1L71.9,55z"/>
	<path fill="#FFAD48" d="M99.1,82H87.9C87,82,86,82.5,86,83.4v9.6c0,0.9,1,2.1,1.9,2.1h11.2c0.9,0,1.9-1.2,1.9-2.1v-9.6
		C101,82.5,100,82,99.1,82z"/>
	<path fill="#98C21F" d="M89,58.6v6.9c0,0.6,0.8,1.5,1.5,1.5h8.1c0.6,0,1.4-0.8,1.4-1.5v-6.9c0-0.6-0.8-1.6-1.4-1.6h-8.1
		C89.8,57,89,58,89,58.6z"/>
	<path fill="#48B2E8" d="M111.9,70h-8.6c-0.7,0-1.4,0.8-1.4,1.5v7.3c0,0.7,0.7,1.1,1.4,1.1h8.6c0.7,0,1.1-0.4,1.1-1.1v-7.3
		C113,70.8,112.6,70,111.9,70z"/>
	<path fill="#FD4F57" d="M109.6,99h-6.5c-0.5,0-1.1,0.6-1.1,1.1v5.6c0,0.5,0.5,1.3,1.1,1.3h6.5c0.5,0,1.4-0.7,1.4-1.3v-5.6
		C111,99.6,110.1,99,109.6,99z"/>
	<path fill="#48B2E8" d="M85.3,96h-3.6h-1.6l-2-14h1.7h4.6c1.3,0,2.7-1.2,2.7-2.5V65.4c0-1.3-1.3-2.4-2.7-2.4h-7.2h-1.8l-1.1-8h1.8
		h0.7c0.9,0,1.2-0.5,1.2-1.4v-9.7c0-0.9-0.3-1.9-1.2-1.9h-2.5h-1.9l0-0.1l-1-0.2l-27.8-24l14.5,90l23.1-4.6l0-0.1h1.6h2.6
		c0.5,0,0.7-0.2,0.7-0.8v-5.6C86,96.1,85.8,96,85.3,96z M64.5,54.9c0.3,0.2,0.6,0.1,0.9,0.1h6.4l0.5,5.1L64.5,54.9L64.5,54.9z
		 M66.6,81.5c0.4,0.3,0.8,0.5,1.3,0.5h9.3l0.7,7.1L66.6,81.5L66.6,81.5z"/>
	<path fill="#FFAD48" d="M103.9,53h4.6c0.4,0,0.6-0.4,0.6-0.8v-3.9c0-0.4-0.2-0.3-0.6-0.3h-4.6c-0.4,0-0.9-0.1-0.9,0.3v3.9
		C103,52.6,103.5,53,103.9,53z"/>
	<path fill="#48B2E8" d="M114.3,58h-3.5c-0.3,0-0.9-0.2-0.9,0.1v3c0,0.3,0.6,0.9,0.9,0.9h3.5c0.3,0,0.7-0.7,0.7-0.9v-3
		C115,57.8,114.6,58,114.3,58z"/>
	<path fill="#48B2E8" d="M121,80.5c0-0.3-0.2-0.5-0.5-0.5h-3c-0.3,0-0.5,0.2-0.5,0.5v3c0,0.3,0.2,0.5,0.5,0.5h3
		c0.3,0,0.5-0.2,0.5-0.5V80.5z"/>
	<path fill="#48B2E8" d="M114.9,41h-3.5c-0.3,0-0.4,0.1-0.4,0.4v3c0,0.3,0.1,0.6,0.4,0.6h3.5c0.3,0,0.1-0.4,0.1-0.6v-3
		C115,41.1,115.2,41,114.9,41z"/>
	<path fill="#DF5857" d="M130,72.5c0-0.3-0.2-0.5-0.5-0.5h-3c-0.3,0-0.5,0.2-0.5,0.5v3c0,0.3,0.2,0.5,0.5,0.5h3
		c0.3,0,0.5-0.2,0.5-0.5V72.5z"/>
	<path fill="#FD4F57" d="M96,43.5c0-0.8-0.7-1.5-1.5-1.5h-10c-0.8,0-1.5,0.7-1.5,1.5v9c0,0.8,0.7,1.5,1.5,1.5h10
		c0.8,0,1.5-0.7,1.5-1.5V43.5z"/>
	<ellipse fill="#FFFFFF" cx="70.7" cy="111.3" rx="2.4" ry="3.1"/>
	<path fill="#FFFFFF" d="M39.3,12.9c0,0-3.8-1.3-4,1.3L52,118c0,0,0.5,1.8,3.3,1.5c2.8-0.3,2-1.8,2-1.8L39.3,12.9z"/>
</g>
</svg>
